<?xml version="1.0" encoding="UTF-8" standalone="no"?>
<svg width="138px" height="145px" viewBox="0 0 138 145" version="1.1" xmlns="http://www.w3.org/2000/svg" xmlns:xlink="http://www.w3.org/1999/xlink">
    <!-- Generator: Sketch 42 (36781) - http://www.bohemiancoding.com/sketch -->
    <title>Group 2</title>
    <desc>Created with Sketch.</desc>
    <defs></defs>
    <g id="Page-1" stroke="none" stroke-width="1" fill="none" fill-rule="evenodd">
        <g id="Web_Record" transform="translate(-1952.000000, -638.000000)" fill="#C0E95B">
            <g id="Group-2" transform="translate(1952.000000, 638.000000)">
                <path d="M57.8733998,5.63054734 L64.6193752,2.25221893 L47.7544367,3.3783284 L53.3760829,0 L38.7598029,0 C33.1381567,0 20.7705352,4.50443787 14.0245598,11.2610947 C7.27858446,18.0177515 7.27858446,22.5221893 7.27858446,22.5221893 C7.27858446,22.5221893 0.532609077,34.9093935 0.532609077,45.0443787 C0.532609077,55.1793639 2.78126754,60.8099112 5.029926,67.566568 C7.27858446,74.3232249 17.3975475,86.710429 17.3975475,86.710429 C17.3975475,86.710429 18.5218768,90.0887574 17.3975475,95.7193047 C16.2732183,101.349852 12.0123457,116.686391 9.4382716,120.976331 C13.7283951,126.12426 22.308642,132.988166 33.462963,137.278107 C44.617284,141.568047 52.7819252,145 73.7901235,144.142012 C72.5164931,143.284024 62.3707167,134.007027 61.2463875,129.502589 C60.1220583,124.998151 62.3707167,113.737056 65.7437044,109.232618 C69.1166921,104.72818 75.8626675,108.106509 79.2356552,108.106509 C82.6086429,108.106509 91.6032767,108.106509 91.6032767,102.475962 C91.6032767,96.8454142 87.1059598,94.5931953 88.230289,91.2148669 C89.3546182,87.8365385 87.1059598,84.4582101 85.9816305,83.3321006 C84.8573013,82.2059911 89.3546182,83.3321006 91.6032767,79.9537722 C93.8519352,76.5754438 90.4789475,73.1971154 90.4789475,73.1971154 C90.4789475,73.1971154 94.9762644,70.9448964 96.1005936,69.818787 C97.2249228,68.6926775 97.2249228,68.6926775 97.2249228,66.4404586 C97.2249228,64.1882396 87.1059598,57.4315828 85.9816305,54.0532544 C84.8573013,50.674926 85.9816305,49.5488166 87.1059598,47.2965976 C88.230289,45.0443787 80.3599844,27.0266272 80.3599844,27.0266272 C80.3599844,27.0266272 87.1059598,28.1527367 92.7276059,22.5221893 C98.3492521,16.891642 89.3546182,20.2699704 88.230289,15.7655325 C87.1059598,11.2610947 72.4896798,7.88276627 70.2410213,7.88276627 C67.9923629,7.88276627 57.8733998,5.63054734 57.8733998,5.63054734 Z" id="Path-3"></path>
                <path d="M114.05375,60.9396255 C114.05375,60.9396255 122.077909,68.8601205 121.460666,77.1129727 C120.843423,85.365825 116.823029,91.2306016 113.436507,93.6562897 C112.202021,94.5405239 109.441581,93.7775369 108.498563,92.7720556 C107.555545,91.7665743 107.264077,89.5298636 108.189941,88.6456294 C109.115806,87.7613953 113.127885,83.6349691 113.436507,77.1505852 C113.745129,70.6662013 107.88132,65.3607963 107.88132,65.3607963 C107.88132,65.3607963 106.029591,63.0028386 108.807184,60.9396255 C111.584778,58.8764124 114.05375,60.9396255 114.05375,60.9396255 Z" id="Path-5" transform="translate(114.385604, 77.034113) rotate(-4.000000) translate(-114.385604, -77.034113) "></path>
                <path d="M121.515775,55.2536446 C121.515775,55.2536446 131.083042,63.5064969 130.465798,75.5910305 C129.848555,87.6755641 123.676125,93.5704586 122.441639,95.0441822 C121.207153,96.5179058 119.972667,99.465353 122.133018,100.939077 C124.293368,102.4128 126.145097,101.528566 126.145097,101.528566 C126.145097,101.528566 137.872715,92.3914797 137.872715,75.8857752 C137.872715,59.3800707 126.76234,49.9482396 126.76234,49.9482396 C126.76234,49.9482396 124.60199,48.1797713 122.133018,50.5377291 C119.664045,52.8956868 121.515775,55.2536446 121.515775,55.2536446 Z" id="Path-6" transform="translate(129.360933, 75.551618) rotate(-4.000000) translate(-129.360933, -75.551618) "></path>
            </g>
        </g>
    </g>
</svg>